# xmcd CD database file
#
# Track frame offsets:
#	175
#	20517
#	42542
#	65262
#	88375
#	109570
#	134995
#	155155
#
# Disc length: 2357 seconds
#
# Revision: 2
# Processed by: cddbd v1.5.2PL0 Copyright (c) Steve Scherf et al.
# Submitted via: CDex 1.70beta2
#
DISCID=75093308
DTITLE=Jerry McCain - Blues 'n' Stuff
DYEAR=1900
DGENRE=
TTITLE0=jerry mcCain - messin' with me baby
TTITLE1=jerry mcCain - 3 wives
TTITLE2=jerry mcCain - brand new mojo
TTITLE3=jerry mcCain - spoiled rotten (to the bone)
TTITLE4=jerry mcCain - love makin' showdown
TTITLE5=jerry mcCain - a rose for my lady
TTITLE6=jerry mcCain - my baby's got it
TTITLE7=jerry mcCain - goin' to the dogs
EXTD=
EXTT0=
EXTT1=
EXTT2=
EXTT3=
EXTT4=
EXTT5=
EXTT6=
EXTT7=
PLAYORDER=
